<svg width="64" height="64" fill="none" xmlns="http://www.w3.org/2000/svg"><path fill="#FF9209" d="M0 0h64v64H0z"/><g clip-path="url(#a)"><path d="m22.9643 39.3525.9276-2.6417h5.6058l.9276 2.6417h2.9845l-5.0615-13.8837h-3.2869L20 39.3525h2.9643Zm5.7672-4.8663h-4.0734l2.0367-5.7998 2.0367 5.7998Zm9.4891 5.045c.8334 0 1.5695-.1688 2.208-.5064.6386-.3377 1.1394-.7647 1.5023-1.2812v1.6089h2.8433V28.3488h-2.8433v1.5691c-.3764-.5032-.8772-.9203-1.5023-1.2513-.6251-.3311-1.3544-.4966-2.1879-.4966-.9545 0-1.8182.2317-2.5912.6952-.773.4635-1.3847 1.1255-1.835 1.9862-.4504.8607-.6755 1.8472-.6755 2.9595 0 1.1255.2251 2.122.6755 2.9893.4503.8673 1.062 1.5393 1.835 2.016.773.4767 1.63.715 2.5711.715Zm.7461-2.443c-.5109 0-.9915-.1324-1.4418-.3973-.4504-.2648-.8134-.6455-1.089-1.142-.2755-.4966-.4133-1.0759-.4133-1.738 0-.6621.1378-1.2348.4133-1.7181.2756-.4833.6352-.8507 1.0789-1.1023.4436-.2516.9276-.3774 1.4519-.3774s1.0149.1291 1.472.3873c.4571.2582.8201.629 1.0889 1.1123.2689.4833.4033 1.0626.4033 1.7379 0 .6754-.1344 1.2547-.4033 1.738-.2688.4833-.6318.8541-1.0889 1.1123-.4571.2582-.9477.3873-1.472.3873Z" fill="#fff"/></g><defs><clipPath id="a"><path fill="#fff" transform="translate(20 20)" d="M0 0h24v25H0z"/></clipPath></defs></svg>