<svg width="64" height="64" fill="none" xmlns="http://www.w3.org/2000/svg"><path fill="#B25DF8" d="M0 0h64v64H0z"/><path d="M31.3497 24h1.2912c.0768.0168.1535.0431.2327.0479.9336.072 1.8384.2829 2.7119.6041 3.0983 1.1458 5.6278 3.0849 7.7134 5.6162.9479 1.1505.9263 2.3203-.0144 3.4828-1.2936 1.6012-2.8295 2.9315-4.5599 4.039-1.4255.9108-2.9447 1.6131-4.6078 1.9679-.4872.1031-.984.163-1.4759.2421h-1.2912c-.0768-.0168-.156-.0431-.2352-.0479a9.8742 9.8742 0 0 1-2.3543-.4914c-3.2903-1.1146-5.9326-3.1401-8.1237-5.7912-.3528-.4267-.5808-.9228-.6288-1.4837-.0648-.803.2856-1.455.7776-2.0495 1.3175-1.5892 2.8655-2.9219 4.615-4.0173 1.4568-.9133 3.0071-1.606 4.7062-1.9296.4128-.0791.828-.1271 1.2432-.1894Zm-4.3558 8.0012c0 2.7398 2.2439 4.9882 4.987 4.993 2.7503.0071 5.0134-2.2508 5.0134-4.9978 0-2.7398-2.2487-4.9858-4.9918-4.9906-2.7599-.0048-5.0086 2.2388-5.0086 4.9954Zm5.9421-2.8285c-.9959.8318-1.2143 1.7211-.6287 2.5672.5903.8534 1.4783.9516 2.6663.2973.1224 1.0211-.7368 2.2963-1.8552 2.7469-1.2623.5082-2.7215.0983-3.5278-.9875-.8208-1.1051-.8016-2.6032.048-3.6579.8063-1.0019 2.2535-1.4262 3.2974-.966Z" fill="#fff"/></svg>