<svg width="64" height="64" fill="none" xmlns="http://www.w3.org/2000/svg"><path fill="#0278ED" d="M0 0h64v64H0z"/><path d="M43.9956 22.6969c-.0028-1.3471-.7843-2.0247-2.1658-1.9896-.4688.0108-.5721.189-.5609.5912.0195.6803.0307 1.3633-.0056 2.0437-.0558 1.1014-.7312 1.7871-1.8588 1.8735-.5972.0459-1.2029.0432-1.7973.0027-1.2113-.081-1.8895-.791-1.9174-1.968-.0139-.656-.0223-1.3121.0028-1.9681.0168-.4211-.1312-.5723-.5777-.5696a345.5767 345.5767 0 0 1-6.26 0c-.4745-.0054-.5666.1917-.5526.5885.0223.6803.0195 1.3633.0028 2.0437-.0252 1.0285-.6392 1.7277-1.6941 1.8438-.6447.0729-1.3034.0675-1.9537.0297-1.1861-.0675-1.8475-.7478-1.8894-1.9032-.0223-.6804-.0251-1.3634 0-2.0437.0167-.4292-.1563-.5534-.5917-.5615-1.4206-.0297-2.1741.6587-2.1741 2.0625-.0028 6.714-.0028 13.4253 0 20.1393 0 1.447.6447 2.0815 2.1378 2.0842 6.5754.0054 13.148.0054 19.7234 0 1.5043 0 2.1323-.621 2.1323-2.0815.0056-3.3556 0-6.714 0-10.0696.0028-3.3854.0084-6.768 0-10.148Zm-21.2612 4.773c-.0028-.351.1535-.4913.5163-.4913 1.535.0081 3.07.0081 4.6022.0027.3294 0 .4577.1322.455.4535-.0112 1.2067-.014 2.4162.0027 3.6229.0056.3996-.2176.4455-.5414.4428-.7535-.0081-1.5071-.0027-2.2634-.0027-.7536 0-1.5099-.0108-2.2635.0054-.3656.0081-.5135-.1269-.5107-.4833.014-1.1851.0112-2.3676.0028-3.55Zm5.579 14.3351c.0056.386-.1256.5399-.533.5345a244.041 244.041 0 0 0-4.446 0c-.4325.0054-.6084-.1404-.6028-.5669.0168-1.1582.014-2.3136.0028-3.4718-.0028-.3536.1423-.494.5079-.4859.7536.0162 1.5071.0054 2.2635.0054.7535 0 1.5099.0135 2.2634-.0054.3963-.0108.5526.1188.547.5183-.0223 1.1582-.0195 2.3163-.0028 3.4718Zm-.6307-4.8729c-.7284-.0297-1.4597-.0081-2.1909-.0081-.7033 0-1.4094-.0216-2.1127.0081-.4577.0189-.6614-.1026-.6503-.5858.0251-1.1338.0223-2.2704.0028-3.4069-.0084-.4374.1758-.5589.6028-.5535 1.4597.0189 2.9221.027 4.3818-.0027.5079-.0108.6084.189.6.6237-.0223 1.1095-.0307 2.2218.0028 3.3313.0112.4805-.173.6128-.6363.5939Zm2.0708-9.9508c1.4876.0081 2.9752.0108 4.4627-.0028.4019-.0026.5554.1404.5498.5319-.0167 1.1608-.0195 2.3217 0 3.4825.0056.4131-.1842.5157-.5665.5076-.7564-.0162-1.5127-.0054-2.269-.0054-.7313 0-1.4625-.0108-2.1909.0054-.3684.0081-.5052-.1269-.5024-.486.014-1.1851.014-2.373 0-3.5581-.0056-.3726.1647-.4779.5163-.4751Zm-.5191 5.9365c-.0055-.3834.12-.5346.5359-.5292 1.4848.0189 2.9695.0162 4.4571 0 .413-.0054.5442.1485.5386.5319a145.1971 145.1971 0 0 0 0 3.4798c.0056.3861-.1311.5399-.5414.5291-.7563-.0216-1.5099-.0054-2.2662-.0054-.7033 0-1.4067-.0135-2.11.0054-.4074.0135-.6251-.0702-.614-.5318.0252-1.1581.0168-2.319 0-3.4798Zm5.5372 8.817c.0112.4643-.1647.6155-.6363.6101-1.4345-.0216-2.8691-.0162-4.3064-.0027-.427.0054-.6084-.1161-.5973-.5588a76.7796 76.7796 0 0 0 0-3.407c-.0083-.4319.1508-.5777.5861-.5615.7285.0243 1.4597.0081 2.1909.0081.7033 0 1.4094.0189 2.1127-.0081.4577-.0162.6587.108.6475.5885-.0279 1.1096-.0251 2.2218.0028 3.3314Zm.9098-14.219c-.0055-.3861.134-.5426.5415-.5372 1.4847.0135 2.9667.0135 4.4515 0 .4186-.0027.6168.1214.6084.5615-.0195 1.1581-.0139 2.3163-.0028 3.4744.0028.3564-.1395.4941-.5079.486-.7815-.0135-1.5629-.0054-2.3416-.0054-.7033 0-1.4066-.0189-2.1071.0081-.455.0162-.6559-.108-.642-.5886.0252-1.1311.0168-2.265 0-3.3988Zm5.5959 14.3378c.0027.3644-.1759.4832-.5248.4832a655.3051 655.3051 0 0 0-4.6078 0c-.3293 0-.4633-.1377-.4605-.4562.0084-1.2095.0112-2.4162 0-3.6256-.0028-.4023.2401-.4374.5554-.4347.7536.0054 1.5099.0027 2.2635.0027.7535 0 1.5098.0108 2.2634-.0027.3656-.0081.5135.1269.5079.4859a215.14 215.14 0 0 0 .0029 3.5474Zm-.6448-4.9242c-.7284-.027-1.4568-.0081-2.1853-.0081-.7535 0-1.5098-.0135-2.2634.0027-.3684.0081-.5079-.1296-.5024-.4859.0112-1.1824.0168-2.3649-.0027-3.5473-.0056-.4131.1842-.5076.5665-.5049 1.482.0135 2.964.0162 4.4459-.0027.441-.0054.5973.1404.5889.5643-.0195 1.1311-.0251 2.265.0028 3.3961.014.4913-.2009.602-.6503.5858ZM25.6397 24.2978c.9462-.0621 1.6802-.791 1.7276-1.7412.0223-.4779.0028-.9584.0028-1.4363 0-.4535.0168-.907-.0028-1.3606-.0446-.961-.7619-1.6845-1.7108-1.7547-.9406-.0675-1.7918.5588-1.9202 1.5172-.1451 1.0744-.1395 2.1678-.0028 3.2422.1201.9584.9685 1.5928 1.9062 1.5334Zm12.7824.0027c1.0159.0378 1.8364-.7289 1.909-1.8114.0279-.4266.0056-.8558.0056-1.2851h-.0028c0-.4778.0307-.961-.0056-1.4362-.0809-1.0366-.8875-1.779-1.8755-1.7655-.9908.0135-1.7862.7748-1.8252 1.8114-.0335.8801-.0307 1.7656 0 2.6457.0335 1.0474.7926 1.8033 1.7945 1.8411Z" fill="#fff"/></svg>