<svg width="64" height="64" fill="none" xmlns="http://www.w3.org/2000/svg"><path fill="#E738CE" d="M0 0h64v64H0z"/><path d="M33.1613 21.5625H21.5484c-.8552 0-1.5484.6996-1.5484 1.5625v18.75c0 .8629.6932 1.5625 1.5484 1.5625h11.6129c.8551 0 1.5484-.6996 1.5484-1.5625v-18.75c0-.8629-.6933-1.5625-1.5484-1.5625ZM42.4516 21.5625h-3.871c-.8551 0-1.5483.6996-1.5483 1.5625v18.75c0 .8629.6932 1.5625 1.5483 1.5625h3.871c.8552 0 1.5484-.6996 1.5484-1.5625v-18.75c0-.8629-.6932-1.5625-1.5484-1.5625Z" fill="#fff"/></svg>