<svg width="180" height="60" fill="none" xmlns="http://www.w3.org/2000/svg"><path d="M165.666.0002H14.3422c-.5516 0-1.0966 0-1.6467.003-.4605.003-.9174.0117-1.3823.019a19.932 19.932 0 0 0-3.0143.2651 10.0453 10.0453 0 0 0-2.8593.9405 9.6826 9.6826 0 0 0-2.4348 1.768 9.3887 9.3887 0 0 0-1.7723 2.4316 9.8824 9.8824 0 0 0-.9402 2.855 19.4365 19.4365 0 0 0-.2695 3.003c-.014.4599-.0154.9213-.0228 1.3813v34.6714c.0074.4657.0088.9169.0228 1.3828a19.436 19.436 0 0 0 .2695 3.0029 9.861 9.861 0 0 0 .9402 2.8564 9.3129 9.3129 0 0 0 1.7723 2.4215 9.4353 9.4353 0 0 0 2.4348 1.768c.9002.4565 1.864.7755 2.8593.9462.9967.1633 2.0043.252 3.0143.2652.4649.0102.9218.0161 1.3823.0161.5501.003 1.0951.003 1.6467.003H165.666c.541 0 1.09 0 1.63-.003.459 0 .929-.0059 1.387-.0161a20.0308 20.0308 0 0 0 3.009-.2652 10.2585 10.2585 0 0 0 2.87-.9462 9.4521 9.4521 0 0 0 2.433-1.768 9.5867 9.5867 0 0 0 1.777-2.4215 9.8917 9.8917 0 0 0 .931-2.8564 20.155 20.155 0 0 0 .279-3.0029c.006-.4659.006-.9171.006-1.3828.012-.545.012-1.0869.012-1.6407v-31.393c0-.5493 0-1.0942-.012-1.6377 0-.46 0-.9214-.006-1.3813a20.1554 20.1554 0 0 0-.279-3.003 9.8853 9.8853 0 0 0-.931-2.855 9.7162 9.7162 0 0 0-4.21-4.1997 10.2065 10.2065 0 0 0-2.87-.9405 19.6893 19.6893 0 0 0-3.009-.2652c-.458-.0073-.928-.016-1.387-.019-.54-.003-1.089-.003-1.63-.003v.0002Z" fill="#A6A6A6"/><path d="M12.7028 58.6875c-.4583 0-.9055-.0059-1.3603-.0161a19.1364 19.1364 0 0 1-2.8115-.2446 8.8659 8.8659 0 0 1-2.4921-.8219A8.128 8.128 0 0 1 3.9375 56.08a7.9801 7.9801 0 0 1-1.535-2.0947 8.5665 8.5665 0 0 1-.8169-2.4858 18.5697 18.5697 0 0 1-.2504-2.8125c-.0095-.3163-.022-1.3696-.022-1.3696V12.6665s.0133-1.0371.022-1.3418c.0115-.941.0948-1.8797.249-2.8081a8.6163 8.6163 0 0 1 .8175-2.4932 8.0612 8.0612 0 0 1 1.527-2.0969 8.3708 8.3708 0 0 1 2.1094-1.5337 8.7763 8.7763 0 0 1 2.487-.8159 18.981 18.981 0 0 1 2.8211-.246l1.3573-.0184H167.289l1.374.019c.936.0111 1.871.0927 2.795.244.874.148 1.721.425 2.513.8217a8.3965 8.3965 0 0 1 3.633 3.63c.392.7792.663 1.613.805 2.4733.156.936.244 1.8821.262 2.8308.004.4248.004.8811.004 1.3352.012.5625.012 1.0979.012 1.6377v31.393c0 .5449 0 1.0767-.012 1.6128 0 .4878 0 .9346-.006 1.3946a18.916 18.916 0 0 1-.257 2.7802 8.5785 8.5785 0 0 1-.812 2.505 8.2263 8.2263 0 0 1-1.528 2.0785 8.128 8.128 0 0 1-2.105 1.5338 8.835 8.835 0 0 1-2.509.8247c-.93.1514-1.87.2332-2.812.2446-.44.0102-.902.0161-1.35.0161l-1.63.003-152.9632-.003Z" fill="#000"/><path d="M37.2576 30.451a7.4082 7.4082 0 0 1 .9694-3.5685 7.433 7.433 0 0 1 2.5754-2.6596 7.6135 7.6135 0 0 0-2.6181-2.326 7.6365 7.6365 0 0 0-3.3855-.9105c-2.5259-.2644-4.9747 1.5072-6.2619 1.5072-1.312 0-3.2938-1.481-5.4279-1.4372a8.0128 8.0128 0 0 0-3.9048 1.1618 7.9835 7.9835 0 0 0-2.8234 2.93c-2.9092 5.0226-.7392 12.4042 2.0475 16.4641 1.3943 1.9881 3.0238 4.2087 5.1559 4.13 2.0864-.0863 2.8657-1.3267 5.3842-1.3267 2.4951 0 3.2262 1.3267 5.4016 1.2766 2.2388-.0362 3.6494-1.9969 4.9947-4.0037a16.4225 16.4225 0 0 0 2.2841-4.6388 7.1885 7.1885 0 0 1-3.1916-2.6403 7.1581 7.1581 0 0 1-1.1996-3.9584ZM33.1486 18.3165a7.2953 7.2953 0 0 0 1.6765-5.2359 7.4635 7.4635 0 0 0-4.8249 2.4894 6.9496 6.9496 0 0 0-1.3634 2.3503 6.9363 6.9363 0 0 0-.3569 2.6918 6.182 6.182 0 0 0 2.699-.5897 6.1627 6.1627 0 0 0 2.1697-1.7059ZM63.6315 40.7095h-7.12l-1.7098 5.0347h-3.0158l6.744-18.627h3.1332l6.744 18.627h-3.0672l-1.7084-5.0347Zm-6.3826-2.3232h5.6438l-2.7822-8.1709h-.0778l-2.7838 8.1709ZM82.9718 38.9547c0 4.2202-2.2651 6.9316-5.6834 6.9316a4.6274 4.6274 0 0 1-2.4849-.5739 4.611 4.611 0 0 1-1.8-1.8021h-.0647v6.7266h-2.7954V32.1636h2.7058v2.2588h.0514a4.8244 4.8244 0 0 1 1.8357-1.7977 4.842 4.842 0 0 1 2.5007-.6032c3.4564.0001 5.7348 2.7247 5.7348 6.9332Zm-2.8733 0c0-2.7495-1.4249-4.5572-3.5989-4.5572-2.1359 0-3.5725 1.8457-3.5725 4.5572 0 2.7363 1.4366 4.5688 3.5725 4.5688 2.174 0 3.5989-1.7944 3.5989-4.5688ZM97.9611 38.9547c0 4.2202-2.2652 6.9316-5.6834 6.9316a4.6273 4.6273 0 0 1-2.4849-.574 4.611 4.611 0 0 1-1.8001-1.802h-.0646v6.7266h-2.7955V32.1636h2.7058v2.2588h.0514a4.8244 4.8244 0 0 1 1.8357-1.7977 4.842 4.842 0 0 1 2.5007-.6032c3.4565 0 5.7349 2.7246 5.7349 6.9332Zm-2.8733 0c0-2.7495-1.4249-4.5572-3.599-4.5572-2.1358 0-3.5725 1.8457-3.5725 4.5572 0 2.7363 1.4367 4.5688 3.5725 4.5688 2.1741 0 3.599-1.7944 3.599-4.5688ZM107.868 40.5543c.207 1.8472 2.006 3.06 4.465 3.06 2.357 0 4.052-1.2129 4.052-2.8784 0-1.4459-1.023-2.3116-3.444-2.9048l-2.42-.5816c-3.43-.8262-5.023-2.4258-5.023-5.0215 0-3.2138 2.809-5.4214 6.797-5.4214 3.947 0 6.653 2.2076 6.744 5.4214h-2.822c-.169-1.8589-1.71-2.9809-3.962-2.9809-2.251 0-3.792 1.1352-3.792 2.7876 0 1.3169.984 2.0918 3.391 2.685l2.058.5039c3.833.9038 5.425 2.439 5.425 5.1636 0 3.4848-2.783 5.6674-7.211 5.6674-4.142 0-6.939-2.1313-7.12-5.5005l2.862.0002ZM125.37 28.9497v3.2139h2.59v2.2075h-2.59v7.4868c0 1.1631.519 1.7051 1.657 1.7051.308-.0054.615-.0269.92-.0645v2.1943a7.6937 7.6937 0 0 1-1.553.1289c-2.757 0-3.832-1.0327-3.832-3.6665v-7.7841h-1.981v-2.2075h1.981v-3.2139h2.808ZM129.46 38.9546c0-4.273 2.524-6.958 6.459-6.958 3.948 0 6.46 2.685 6.46 6.958 0 4.2847-2.498 6.958-6.46 6.958-3.96 0-6.459-2.6734-6.459-6.958Zm10.071 0c0-2.9312-1.347-4.6611-3.612-4.6611s-3.611 1.7431-3.611 4.6611c0 2.9429 1.346 4.6597 3.611 4.6597s3.612-1.7168 3.612-4.6597ZM144.684 32.1635h2.666v2.3115h.065a3.2341 3.2341 0 0 1 1.201-1.8067 3.2548 3.2548 0 0 1 2.075-.6469 4.334 4.334 0 0 1 .958.104v2.6074a3.9193 3.9193 0 0 0-1.256-.1684 2.8238 2.8238 0 0 0-2.178.8941 2.815 2.815 0 0 0-.612 1.0348c-.127.385-.169.7929-.123 1.1956v8.0552h-2.796V32.1635ZM164.537 41.7554c-.376 2.4653-2.784 4.1572-5.864 4.1572-3.962 0-6.421-2.647-6.421-6.8936 0-4.2597 2.472-7.0224 6.303-7.0224 3.768 0 6.138 2.581 6.138 6.6987v.9551h-9.619v.1684a3.53 3.53 0 0 0 .184 1.4771c.166.4738.431.9069.777 1.2708a3.5536 3.5536 0 0 0 2.703 1.0988 3.089 3.089 0 0 0 1.89-.435 3.0781 3.0781 0 0 0 1.255-1.4751h2.654Zm-9.45-4.0533h6.809a3.2503 3.2503 0 0 0-.201-1.3209 3.2517 3.2517 0 0 0-.714-1.1302 3.2742 3.2742 0 0 0-1.109-.7505 3.2777 3.2777 0 0 0-1.317-.2451 3.4529 3.4529 0 0 0-2.454 1.0028 3.4337 3.4337 0 0 0-1.014 2.444v-.0001ZM56.8986 13.0966a3.9787 3.9787 0 0 1 1.7218.2585 3.9711 3.9711 0 0 1 1.4454.9683c.404.4254.7083.935.8909 1.4919a3.949 3.949 0 0 1 .1651 1.7285c0 2.8594-1.5497 4.503-4.2232 4.503h-3.242v-8.9502h3.242Zm-1.848 7.6845h1.6923a2.8295 2.8295 0 0 0 1.2267-.2004 2.8233 2.8233 0 0 0 1.0214-.7067 2.8138 2.8138 0 0 0 .6177-1.0758c.1231-.4.1553-.8222.0941-1.2361a2.8146 2.8146 0 0 0-.1037-1.2289 2.8193 2.8193 0 0 0-.6195-1.0674 2.8294 2.8294 0 0 0-1.0168-.702 2.8366 2.8366 0 0 0-1.2199-.2024h-1.6923v6.4197ZM62.6966 18.6667a3.1907 3.1907 0 0 1 .1495-1.3149 3.1967 3.1967 0 0 1 .6701-1.142 3.209 3.209 0 0 1 1.0763-.7741 3.2169 3.2169 0 0 1 2.5966 0 3.209 3.209 0 0 1 1.0763.7741 3.194 3.194 0 0 1 .8197 2.4569 3.1933 3.1933 0 0 1-.1478 1.3166 3.197 3.197 0 0 1-.6697 1.1441 3.2091 3.2091 0 0 1-1.077.7756 3.2175 3.2175 0 0 1-2.5995 0 3.2095 3.2095 0 0 1-1.0771-.7756 3.1985 3.1985 0 0 1-.6697-1.1441 3.1916 3.1916 0 0 1-.1477-1.3166Zm5.0135 0c0-1.4641-.6596-2.3203-1.8171-2.3203-1.1619 0-1.8156.8562-1.8156 2.3203 0 1.4758.6537 2.3254 1.8156 2.3254 1.1576 0 1.8171-.8555 1.8171-2.3254ZM77.5771 22.0469h-1.3867l-1.3999-4.9746h-.1058l-1.394 4.9746h-1.3735l-1.867-6.7544h1.3558l1.2134 5.154h.0999l1.3925-5.154h1.2824l1.3926 5.154h.1058l1.2074-5.154h1.3368l-1.8597 6.7544ZM81.0071 15.2923h1.2868v1.073h.0999a2.0236 2.0236 0 0 1 .8176-.9242 2.0322 2.0322 0 0 1 1.2037-.2792 2.2092 2.2092 0 0 1 .9682.145c.3078.1202.5845.3078.8096.5491.2252.2412.393.5299.4911.8447a2.19 2.19 0 0 1 .0755.9734v4.3725h-1.3367v-4.0377c0-1.0855-.473-1.6253-1.4616-1.6253a1.558 1.558 0 0 0-.6548.1113 1.5543 1.5543 0 0 0-.5484.3739 1.5495 1.5495 0 0 0-.3416.568 1.5456 1.5456 0 0 0-.0726.6585v3.9514h-1.3367v-6.7544ZM88.8895 12.6558h1.3368v9.3911h-1.3368v-9.3911ZM92.0845 18.6668a3.1907 3.1907 0 0 1 .1496-1.3149 3.1996 3.1996 0 0 1 .6702-1.1421 3.2093 3.2093 0 0 1 1.0764-.7741 3.2173 3.2173 0 0 1 2.5968 0 3.209 3.209 0 0 1 1.0763.7741c.3008.33.5291.719.6703 1.1421.1412.4231.1921.871.1496 1.3149a3.1915 3.1915 0 0 1-.1479 1.3166 3.1987 3.1987 0 0 1-.6698 1.1441 3.2105 3.2105 0 0 1-1.0771.7756 3.2175 3.2175 0 0 1-2.5996 0 3.2085 3.2085 0 0 1-1.0771-.7756 3.1975 3.1975 0 0 1-.6699-1.1441 3.1915 3.1915 0 0 1-.1478-1.3166Zm5.0135 0c0-1.4641-.6596-2.3203-1.8171-2.3203-1.1619 0-1.8156.8562-1.8156 2.3203 0 1.4759.6537 2.3255 1.8156 2.3255 1.1575-.0001 1.8171-.8555 1.8171-2.3255ZM99.881 20.1367c0-1.2158.908-1.9167 2.519-2.0164l1.835-.1054v-.583c0-.7134-.473-1.1162-1.387-1.1162-.746 0-1.263.2732-1.411.7507h-1.295c.137-1.1602 1.231-1.9043 2.768-1.9043 1.698 0 2.656.843 2.656 2.2698v4.615h-1.287v-.9492h-.106c-.214.3404-.516.618-.873.8043a2.2864 2.2864 0 0 1-1.161.2562 2.053 2.053 0 0 1-.844-.0889 2.0489 2.0489 0 0 1-.735-.4223 2.038 2.038 0 0 1-.679-1.5103Zm4.354-.5771v-.5647l-1.654.1054c-.933.0623-1.356.3787-1.356.9741 0 .6079.529.9617 1.256.9617a1.6015 1.6015 0 0 0 1.191-.3675c.164-.1378.298-.3069.394-.4975.097-.1905.155-.3985.169-.6115ZM107.323 18.6668c0-2.1343 1.1-3.4864 2.811-3.4864.424-.0194.844.0817 1.212.2915.367.2099.668.5198.865.8935h.1v-3.7096h1.337v9.3911h-1.281v-1.0672h-.106a2.3446 2.3446 0 0 1-.898.885c-.375.2078-.8.3092-1.229.2935-1.723.0001-2.811-1.352-2.811-3.4914Zm1.381 0c0 1.4326.677 2.2947 1.809 2.2947 1.127 0 1.823-.8745 1.823-2.2889 0-1.4077-.703-2.2946-1.823-2.2946-1.125 0-1.809.8679-1.809 2.2888ZM119.179 18.6667a3.187 3.187 0 0 1 .149-1.3149c.141-.4231.37-.8121.67-1.142a3.2162 3.2162 0 0 1 3.673-.7741c.409.1804.776.4441 1.076.7741a3.187 3.187 0 0 1 .82 2.4569c.044.4443-.007.8928-.148 1.3166-.14.4238-.368.8135-.669 1.1441a3.2141 3.2141 0 0 1-2.377 1.0498 3.2141 3.2141 0 0 1-2.377-1.0498 3.1992 3.1992 0 0 1-.67-1.1441 3.1946 3.1946 0 0 1-.147-1.3166Zm5.013 0c0-1.4641-.659-2.3203-1.817-2.3203-1.162 0-1.815.8562-1.815 2.3203 0 1.4758.653 2.3254 1.815 2.3254 1.158 0 1.817-.8555 1.817-2.3254ZM127.361 15.2923h1.287v1.073h.099a2.03 2.03 0 0 1 .818-.9242 2.032 2.032 0 0 1 1.204-.2792 2.21 2.21 0 0 1 .968.145 2.21 2.21 0 0 1 .81.5491c.225.2412.393.5299.491.8447.098.3147.124.6474.075.9734v4.3725h-1.337v-4.0377c0-1.0855-.473-1.6253-1.461-1.6253a1.5594 1.5594 0 0 0-.655.1113 1.5447 1.5447 0 0 0-.548.3739 1.5384 1.5384 0 0 0-.342.568 1.5649 1.5649 0 0 0-.073.6585v3.9514h-1.336v-6.7544ZM140.667 13.6108v1.7124h1.467v1.1228h-1.467v3.4732c0 .7075.292 1.0173.957 1.0173.171-.0005.341-.0108.51-.0307v1.1103a4.396 4.396 0 0 1-.727.0681c-1.487 0-2.079-.5215-2.079-1.8237V16.446h-1.075v-1.1228h1.075v-1.7124h1.339ZM143.96 12.6558h1.325v3.7221h.106a2.075 2.075 0 0 1 .841-.9304 2.0872 2.0872 0 0 1 1.224-.2795c.328-.0178.656.0368.96.1598.304.1231.577.3116.8.5521.223.2405.39.5271.489.8393.099.3122.127.6423.084.9668v4.3609h-1.338v-4.032c0-1.0789-.504-1.6253-1.449-1.6253a1.5844 1.5844 0 0 0-1.252.4608 1.5776 1.5776 0 0 0-.365.5758 1.5547 1.5547 0 0 0-.088.6758v3.9449h-1.337v-9.3911ZM157.583 20.2233a2.743 2.743 0 0 1-1.112 1.5085 2.7545 2.7545 0 0 1-1.823.4455 3.0859 3.0859 0 0 1-1.3-.2497 3.0873 3.0873 0 0 1-1.074-.7712 3.0837 3.0837 0 0 1-.65-1.1497 3.0666 3.0666 0 0 1-.105-1.3157 3.115 3.115 0 0 1 .107-1.3192 3.128 3.128 0 0 1 .647-1.1558 3.1224 3.1224 0 0 1 1.07-.7837 3.1328 3.1328 0 0 1 1.299-.2701c1.885 0 3.022 1.284 3.022 3.405v.4652h-4.783v.0747c-.021.2478.01.4973.092.7324.081.2352.211.4507.381.6329.169.1822.376.327.605.4251.229.0981.476.1473.726.1446a1.6258 1.6258 0 0 0 1.611-.8189l1.287.0001Zm-4.702-2.1768h3.421a1.6176 1.6176 0 0 0-.091-.6685 1.6198 1.6198 0 0 0-.354-.5746 1.639 1.639 0 0 0-.557-.3822 1.64 1.64 0 0 0-.665-.1245 1.738 1.738 0 0 0-.675.1274 1.7295 1.7295 0 0 0-.572.3787 1.72 1.72 0 0 0-.507 1.2437Z" fill="#fff"/></svg>