<svg width="120" height="126" fill="none" xmlns="http://www.w3.org/2000/svg"><path fill-rule="evenodd" clip-rule="evenodd" d="M44.7127 0H77.093c7.4124 0 10.1003.7707 12.8095 2.2185 2.7092 1.449 4.8371 3.5738 6.2861 6.2808 1.4489 2.7069 2.2203 5.3926 2.2203 12.7988v32.3532c0 7.4063-.7714 10.0907-2.2203 12.7989-1.449 2.7069-3.5769 4.8317-6.2861 6.2807-2.7092 1.4478-5.3971 2.2185-12.8095 2.2185H44.7127c-7.4125 0-10.1004-.7707-12.8096-2.2185-2.7092-1.449-4.8358-3.5738-6.2848-6.2807-1.4502-2.7082-2.2216-5.3926-2.2216-12.7989V21.2981c0-7.4062.7714-10.0919 2.2216-12.7988 1.449-2.707 3.5756-4.8318 6.2848-6.2808C34.6123.7707 37.3002 0 44.7127 0Z" fill="url(#a)"/><path opacity=".9" fill-rule="evenodd" clip-rule="evenodd" d="M51.9869 19.9863v.406l-.4163.4147c-2.0554 2.0986-3.6356 4.5807-4.7421 7.4475-1.1801 3.0579-1.7702 6.2096-1.7702 9.4549 0 3.1616.5588 6.2133 1.6777 9.1575 1.119 2.9431 2.7155 5.4963 4.7896 7.6586v.4372h-4.3432l-.3676-.3735c-1.8153-1.8949-3.238-4.2683-4.2669-7.1139-1.099-3.038-1.6478-6.2933-1.6478-9.7659 0-3.5576.5751-6.9016 1.724-10.032 1.1502-3.1304 2.8242-5.6937 5.0208-7.6911h4.342Zm22.1748 0 .4064.381c1.9978 1.9387 3.5355 4.3758 4.6132 7.3101 1.1502 3.1304 1.7253 6.4744 1.7253 10.032 0 3.4726-.5501 6.7279-1.6478 9.7659-1.0989 3.0367-2.6442 5.5325-4.6357 7.4874h-4.342v-.4372l.4076-.4372c1.8765-2.0673 3.3368-4.4745 4.3807-7.2214 1.1202-2.9442 1.679-5.9959 1.679-9.1575 0-3.2453-.5901-6.397-1.7703-9.4549-1.1814-3.0579-2.9004-5.6787-5.1583-7.8622v-.406h4.3419Zm-17.8629 7.0515v8.954h9.2078v-8.954h4.3132v21.7778h-4.3132v-9.2662h-9.2078v9.2662h-4.3119V27.0378h4.3119Z" fill="#fff"/><path fill-rule="evenodd" clip-rule="evenodd" d="M62.4331 99.9607c1.486 0 2.8296.3673 4.0341 1.1013 1.2033.735 2.1566 1.78 2.8576 3.134.7009 1.353 1.0508 2.922 1.0508 4.707 0 1.783-.3499 3.363-1.0508 4.738-.701 1.376-1.6543 2.441-2.8576 3.197-1.2045.755-2.5481 1.133-4.0341 1.133-1.2774 0-2.4023-.262-3.3757-.788-.8636-.465-1.5847-1.04-2.1612-1.722l-.2086-.261V126h-4.3951v-25.756h4.3951v2.519l.1963-.261c.5451-.683 1.2594-1.263 2.1432-1.739.9948-.535 2.1286-.8023 3.406-.8023Zm21.2851 0c1.486 0 2.8307.3673 4.034 1.1013 1.2034.735 2.1556 1.78 2.8565 3.134.7009 1.353 1.052 2.922 1.052 4.707 0 1.783-.3511 3.363-1.052 4.738-.7009 1.376-1.6531 2.441-2.8565 3.197-1.2033.755-2.548 1.133-4.034 1.133-1.2763 0-2.4012-.262-3.3746-.788-.8658-.465-1.5859-1.04-2.1612-1.722l-.2097-.261V126h-4.3941v-25.756h4.3941v2.519l.1963-.261c.545-.683 1.2583-1.263 2.142-1.739.9948-.535 2.1309-.8023 3.4072-.8023Zm22.5638.2833 4.489 12.185 4.551-12.185H120l-10.768 25.694h-4.677l3.767-8.691-6.969-17.003h4.929ZM32.7614 88.5938v.4091l-.425.4183c-2.0939 2.1186-3.7055 4.6237-4.8337 7.5164-1.2034 3.0854-1.8056 6.2664-1.8056 9.5404 0 3.191.5708 6.272 1.7125 9.242 1.1395 2.97 2.7668 5.546 4.8808 7.73v.441h-4.4266l-.3544-.355c-1.8594-1.917-3.3174-4.318-4.3705-7.203-1.1193-3.064-1.6789-6.35-1.6789-9.855 0-3.589.5854-6.9639 1.7574-10.123 1.172-3.1591 2.8778-5.7458 5.1174-7.7612h4.4266Zm60.4425 0 .3891.3615c2.0479 1.9599 3.6247 4.4264 4.7283 7.3997 1.172 3.1591 1.7577 6.534 1.7577 10.123 0 3.505-.5611 6.791-1.6803 9.855-1.1193 3.065-2.6939 5.585-4.7249 7.558h-4.4266v-.441l.3914-.414c1.9256-2.094 3.4217-4.532 4.4916-7.316 1.1395-2.97 1.7103-6.051 1.7103-9.242 0-3.274-.6011-6.455-1.8045-9.5404-1.2045-3.0854-2.9563-5.7299-5.2598-7.9347v-.4091h4.4277ZM37.8205 99.9607c1.2976 0 2.4326.2623 3.4061.7863.8646.467 1.5768 1.041 2.1364 1.723l.2019.261v-2.487h4.4266v17.444h-4.4266v-2.551l-.1963.268c-.5439.699-1.2583 1.287-2.142 1.763-.9948.536-2.1399.803-3.4386.803-1.4635 0-2.7993-.378-4.0015-1.133-1.2034-.756-2.1567-1.821-2.8576-3.197-.701-1.375-1.0509-2.955-1.0509-4.738 0-1.764.3499-3.327 1.0509-4.692.7009-1.364 1.6542-2.414 2.8576-3.149 1.2022-.734 2.548-1.1013 4.034-1.1013ZM4.3952 95.71v9.036h9.3859V95.71h4.3951v21.978h-4.3951v-9.352h-9.386v9.352H0V95.71h4.3952Zm34.5558 8.124c-.8164 0-1.5701.198-2.2609.597-.6909.399-1.2505.982-1.6801 1.748-.4284.766-.6426 1.673-.6426 2.724 0 1.05.2142 1.968.6426 2.755.4296.787.9948 1.39 1.6958 1.811.7009.419 1.4501.629 2.2452.629.8154 0 1.5802-.204 2.2901-.614.7122-.41 1.2774-.997 1.6958-1.763.4183-.766.628-1.684.628-2.756 0-1.07-.2097-1.989-.628-2.754-.4184-.766-.9836-1.355-1.6958-1.764-.7099-.409-1.4747-.613-2.2901-.613Zm22.3202 0c-.7951 0-1.5432.204-2.2441.613-.7009.409-1.2662 1.002-1.6957 1.78-.4296.776-.6438 1.689-.6438 2.738 0 1.051.2142 1.964.6438 2.74.4295.777.9948 1.369 1.6957 1.779.7009.41 1.449.614 2.2441.614.8165 0 1.5746-.21 2.2756-.629.702-.421 1.2673-1.019 1.6957-1.796.4295-.776.6437-1.7.6437-2.77 0-1.051-.2142-1.958-.6437-2.724-.4284-.766-.9937-1.349-1.6957-1.748-.701-.399-1.4591-.597-2.2756-.597Zm21.2851 0c-.7952 0-1.5443.204-2.2453.613-.7009.409-1.265 1.002-1.6946 1.78-.4284.776-.6437 1.689-.6437 2.738 0 1.051.2153 1.964.6437 2.74.4296.777.9937 1.369 1.6946 1.779.701.41 1.4501.614 2.2453.614.8164 0 1.5757-.21 2.2766-.629.701-.421 1.2662-1.019 1.6946-1.796.4296-.776.6449-1.7.6449-2.77 0-1.051-.2153-1.958-.6449-2.724-.4284-.766-.9936-1.349-1.6946-1.748-.7009-.399-1.4602-.597-2.2766-.597Z" fill="#222"/><defs><linearGradient id="a" x1="21.4408" y1="-2.7012" x2="98.3458" y2="72.7398" gradientUnits="userSpaceOnUse"><stop stop-color="#D140F8"/><stop offset=".3651" stop-color="#788CE9"/><stop offset=".6837" stop-color="#37C2DE"/><stop offset="1" stop-color="#1ECCAE"/></linearGradient></defs></svg>