<svg width="24" height="24" fill="none" xmlns="http://www.w3.org/2000/svg"><path d="M12 5.7683c-3.4362 0-6.2317 2.7955-6.2317 6.2317S8.5638 18.2293 12 18.2293 18.2293 15.4338 18.2293 12C18.2317 8.5638 15.4362 5.7683 12 5.7683Zm0 10.0853c-2.1258 0-3.8536-1.7278-3.8536-3.8536S9.8742 8.1464 12 8.1464 15.8536 9.8742 15.8536 12 14.1258 15.8536 12 15.8536ZM17.0936 0H6.9064C3.0989 0 0 3.0989 0 6.9064v10.1872C0 20.9011 3.0989 24 6.9064 24h10.1872C20.9011 24 24 20.9011 24 17.0936V6.9064C24 3.0989 20.9035 0 17.0936 0Zm4.5307 17.0936c0 2.4971-2.0336 4.5282-4.5307 4.5282H6.9064c-2.4971 0-4.5282-2.0311-4.5282-4.5282V6.9064c0-2.4971 2.0311-4.5282 4.5282-4.5282h10.1872c2.4971 0 4.5282 2.0311 4.5282 4.5282v10.1872h.0025Zm-3.3076-13.126c-.8979 0-1.6308.7305-1.6308 1.6308 0 .8979.7305 1.6307 1.6308 1.6307.8979 0 1.6307-.7304 1.6307-1.6307s-.7328-1.6308-1.6307-1.6308Z" fill="#1B1A1A"/></svg>