<svg width="24" height="24" fill="none" xmlns="http://www.w3.org/2000/svg"><path d="M12.0204 5.4364c-3.577-.0082-6.4735 2.8738-6.479 6.4411-.0055 3.5674 2.8746 6.4742 6.4186 6.4852 3.5851.0082 6.4845-2.8765 6.49-6.4577 0-3.57-2.872-6.463-6.4296-6.4686ZM5.599 15.5715c-.2524-.4184-.779-.5615-1.2261-.3303-.1262.0661-.247.1404-.3703.212-.6858.3963-1.3743.7872-2.0546 1.1918-.3895.2313-.543.6552-.4169 1.0708.1207.3936.4773.6551.9162.6524.1234.011.2633-.0248.3895-.0964.8311-.4762 1.6677-.9441 2.4879-1.4423.4334-.2643.5376-.8231.2743-1.258ZM18.31 8.0239c.1152.3743.4828.6496.875.6523.1454.0055.288-.0247.4115-.0936.8393-.4789 1.6814-.9523 2.5071-1.4478.4196-.2533.5321-.7955.2962-1.2167-.2386-.4239-.7543-.622-1.185-.388-.8695.4734-1.7226.9716-2.5702 1.4808-.3319.2037-.4498.6359-.3346 1.013Zm-6.1169-3.405c.5157-.0027.9161-.4129.9189-.9524.0027-.4514 0-.9056 0-1.357V.9277c-.011-.523-.4087-.925-.9162-.9277-.5184-.0027-.9299.402-.9326.936a227.7702 227.7702 0 0 0 0 2.7415c.0027.5313.4142.9414.9299.9414Zm.0027 14.7595c-.5184-.0028-.9299.4019-.9326.9359a227.7709 227.7709 0 0 0 0 2.7416c.0027.534.4114.9441.9271.9441.5157-.0028.9162-.4129.9189-.9524.0028-.4514 0-.9056 0-1.3598V20.306c-.0082-.5202-.4059-.9249-.9134-.9276Zm-8.517-6.5485c.5212-.0027.9134-.3743.9353-.8808.022-.5092-.3538-.9524-.8777-.9634a70.284 70.284 0 0 0-2.8527 0c-.5102.011-.8998.4569-.8833.9414.011.512.4197.9001.9436.9028.4608.0028.919 0 1.3797 0 .4526 0 .9025.0028 1.355 0Zm19.4397-1.8442a70.2827 70.2827 0 0 0-2.8527 0c-.5102.011-.8998.4569-.8833.9414.0137.5092.4224.9001.9463.9028.4609.0028.9189 0 1.3798 0 .4526 0 .9024.0028 1.355 0 .5212-.0027.9134-.3743.9354-.8808.0219-.5092-.3539-.9524-.8805-.9634Zm-6.8685-5.1694c.3237-.0055.598-.1266.7625-.4047.4938-.8312.9848-1.668 1.4511-2.513.2359-.4267.0576-.958-.3593-1.2002-.4197-.245-.9656-.1487-1.2179.267-.5075.834-1.0012 1.6763-1.4621 2.5351-.3209.6001.1482 1.313.8257 1.3158Zm5.7987 10.8287c-.79-.4652-1.5855-.9276-2.3837-1.3763-.4745-.267-1.0176-.1156-1.2755.3331-.266.4624-.1124.9964.3813 1.2827.7653.4459 1.5334.8891 2.3014 1.3295.1591.0909.3264.1652.5047.1514.4224 0 .7873-.2725.8997-.6579.1207-.4128-.0384-.8312-.4279-1.0625ZM7.0418 5.1667c.1783.3028.4471.4624.8037.4597.7104-.0028 1.1493-.7377.801-1.3708-.4499-.812-.9162-1.6158-1.3907-2.4113-.2743-.4597-.8147-.589-1.259-.3303-.4417.2615-.5953.7982-.3347 1.2634.4526.801.9161 1.5965 1.3797 2.3893ZM1.9645 7.2008c.7845.4597 1.5745.9112 2.3617 1.368.1482.0854.3045.1295.4252.124.4636-.0028.8256-.2726.9381-.6607.1152-.4074-.0357-.8285-.4114-1.0487a129.7828 129.7828 0 0 0-2.403-1.39c-.4717-.267-1.023-.1102-1.2754.3385-.2606.4624-.1152.9882.3648 1.269ZM8.427 18.492c-.4635-.2752-1.0121-.1211-1.3029.3771-.4471.768-.8887 1.5387-1.3331 2.3067-.0878.1542-.1536.3138-.1426.4817-.0028.4349.2605.7928.6528.9084.417.1239.8339-.0303 1.0643-.4184.4608-.779.908-1.5635 1.3578-2.348.2798-.4899.1536-1.0405-.2963-1.3075Zm8.5445.179c-.2935-.501-.8394-.6552-1.3002-.3827-.4498.267-.5788.8176-.299 1.3075.2222.3937.4526.7818.6803 1.1754.2304.3991.4498.801.6912 1.1946.2304.3771.6666.5285 1.0753.3992.3758-.1184.6309-.479.6309-.9249.011-.1432-.0521-.3056-.1399-.4597-.4471-.7707-.8887-1.5415-1.3386-2.3094Z" fill="#fff"/></svg>