<svg width="76" height="75" fill="none" xmlns="http://www.w3.org/2000/svg"><path fill-rule="evenodd" clip-rule="evenodd" d="M21.7127 0H54.093c7.4124 0 10.1003.7707 12.8095 2.2185 2.7092 1.449 4.8371 3.5738 6.2861 6.2808 1.4489 2.7069 2.2203 5.3926 2.2203 12.7988v32.3532c0 7.4063-.7714 10.0907-2.2203 12.7989-1.449 2.7069-3.5769 4.8317-6.2861 6.2807-2.7092 1.4478-5.3971 2.2185-12.8095 2.2185H21.7127c-7.4125 0-10.1004-.7707-12.8096-2.2185-2.7092-1.449-4.8358-3.5738-6.2848-6.2807C1.1681 63.742.3967 61.0576.3967 53.6513V21.2981c0-7.4062.7714-10.0919 2.2216-12.7988 1.449-2.707 3.5756-4.8318 6.2848-6.2808C11.6123.7707 14.3002 0 21.7127 0Z" fill="url(#a)"/><path opacity=".9" fill-rule="evenodd" clip-rule="evenodd" d="M28.9869 19.9863v.406l-.4163.4147c-2.0554 2.0986-3.6356 4.5807-4.7421 7.4475-1.1801 3.0579-1.7702 6.2096-1.7702 9.4549 0 3.1616.5588 6.2133 1.6777 9.1575 1.119 2.9431 2.7155 5.4963 4.7896 7.6586v.4372h-4.3432l-.3676-.3735c-1.8153-1.8949-3.238-4.2683-4.2669-7.1139-1.099-3.038-1.6478-6.2933-1.6478-9.7659 0-3.5576.5751-6.9016 1.724-10.032 1.1502-3.1304 2.8242-5.6937 5.0208-7.6911h4.342Zm22.1748 0 .4064.381c1.9978 1.9387 3.5355 4.3758 4.6132 7.3101 1.1502 3.1304 1.7253 6.4744 1.7253 10.032 0 3.4726-.5501 6.7279-1.6478 9.7659-1.0989 3.0367-2.6442 5.5325-4.6357 7.4874h-4.342v-.4372l.4076-.4372c1.8765-2.0673 3.3368-4.4745 4.3807-7.2214 1.1202-2.9442 1.679-5.9959 1.679-9.1575 0-3.2453-.5901-6.397-1.7703-9.4549-1.1814-3.0579-2.9004-5.6787-5.1583-7.8622v-.406h4.3419Zm-17.8629 7.0515v8.954h9.2078v-8.954h4.3132v21.7778h-4.3132v-9.2662h-9.2078v9.2662h-4.3119V27.0378h4.3119Z" fill="#fff"/><defs><linearGradient id="a" x1="-1.5592" y1="-2.7012" x2="75.3458" y2="72.7398" gradientUnits="userSpaceOnUse"><stop stop-color="#D140F8"/><stop offset=".3651" stop-color="#788CE9"/><stop offset=".6837" stop-color="#37C2DE"/><stop offset="1" stop-color="#1ECCAE"/></linearGradient></defs></svg>