<svg width="192" height="64" fill="none" xmlns="http://www.w3.org/2000/svg"><path fill-rule="evenodd" clip-rule="evenodd" d="M18.1591 0h27.5848c6.3147 0 8.6046.6581 10.9125 1.8944 2.308 1.2373 4.1207 3.0517 5.3551 5.3632s1.8915 4.6048 1.8915 10.9291v27.6266c0 6.3243-.6571 8.6166-1.8915 10.9291-1.2344 2.3115-3.0471 4.1259-5.3551 5.3632C54.3485 63.3419 52.0586 64 45.7439 64H18.1591c-6.3147 0-8.6045-.6581-10.9125-1.8944-2.308-1.2373-4.1196-3.0517-5.354-5.3632C.6571 54.4299 0 52.1376 0 45.8133V18.1867c0-6.3243.6571-8.6176 1.8926-10.9291 1.2344-2.3115 3.046-4.1259 5.354-5.3632C9.5546.6581 11.8444 0 18.1591 0Z" fill="url(#a)"/><path opacity=".9" fill-rule="evenodd" clip-rule="evenodd" d="M24.356 17.0667v.3466l-.3547.3542c-1.7509 1.792-3.0971 3.9114-4.0397 6.3594-1.0054 2.6112-1.5081 5.3024-1.5081 8.0736 0 2.6998.4761 5.3056 1.4293 7.8198.9532 2.513 2.3133 4.6933 4.0802 6.5397v.3733h-3.7l-.3131-.3189c-1.5465-1.6181-2.7585-3.6448-3.635-6.0747-.9362-2.5941-1.4038-5.3738-1.4038-8.3392 0-3.0378.49-5.8933 1.4687-8.5664.9799-2.673 2.406-4.8618 4.2773-6.5674h3.6989Zm18.8908 0 .3461.3253c1.702 1.6555 3.012 3.7365 3.9301 6.2421.9798 2.6731 1.4698 5.5286 1.4698 8.5664 0 2.9654-.4687 5.7451-1.4038 8.3392-.9362 2.5931-2.2526 4.7243-3.9492 6.3936h-3.6989V46.56l.3472-.3733c1.5986-1.7654 2.8426-3.8208 3.7319-6.1664.9543-2.5142 1.4304-5.12 1.4304-7.8198 0-2.7712-.5027-5.4624-1.5081-8.0736-1.0065-2.6112-2.4709-4.849-4.3944-6.7136v-.3466h3.6989ZM28.0294 23.088v7.6459h7.8441V23.088h3.6744v18.5963h-3.6744v-7.9126h-7.8441v7.9126H24.356V23.088h3.6734Z" fill="#fff"/><path fill-rule="evenodd" clip-rule="evenodd" d="M137.331 26.0891c1.411 0 2.687.3456 3.831 1.0368 1.143.6912 2.048 1.6746 2.714 2.9482.665 1.2736.998 2.7499.998 4.4299 0 1.6779-.333 3.1648-.998 4.4587-.666 1.2949-1.571 2.2965-2.714 3.008-1.144.7104-2.42 1.0666-3.831 1.0666-1.213 0-2.281-.2464-3.206-.7413-.82-.4384-1.505-.9792-2.052-1.6213l-.198-.2454v10.1632h-4.174V26.3557h4.174v2.3702l.186-.2454c.518-.6432 1.196-1.1882 2.035-1.6362.945-.5035 2.022-.7552 3.235-.7552Zm20.214 0c1.411 0 2.688.3456 3.831 1.0368 1.142.6912 2.047 1.6746 2.712 2.9482.666 1.2736.999 2.7499.999 4.4299 0 1.6779-.333 3.1648-.999 4.4587-.665 1.2949-1.57 2.2965-2.712 3.008-1.143.7104-2.42 1.0666-3.831 1.0666-1.212 0-2.281-.2464-3.205-.7413-.822-.4384-1.506-.9792-2.053-1.6213l-.199-.2454v10.1632h-4.173V26.3557h4.173v2.3702l.187-.2454c.517-.6432 1.195-1.1882 2.034-1.6362.945-.5035 2.024-.7552 3.236-.7552Zm21.427.2666 4.264 11.4667 4.322-11.4667H192l-10.226 24.1782h-4.442l3.578-8.1782-6.619-16h4.681Zm-69.819-10.9632v.3851l-.404.3936c-1.988 1.9936-3.519 4.3509-4.59 7.0731-1.143 2.9034-1.715 5.8965-1.715 8.9781 0 3.0027.542 5.9019 1.626 8.6965 1.083 2.7947 2.628 5.2192 4.636 7.2736v.415h-4.204l-.337-.3339c-1.766-1.8037-3.15-4.0629-4.15-6.7776-1.0631-2.8832-1.5946-5.9755-1.5946-9.2736 0-3.3781.556-6.5536 1.6686-9.5264 1.113-2.9728 2.733-5.4069 4.86-7.3035h4.204Zm57.4 0 .369.3403c1.945 1.8443 3.443 4.1653 4.491 6.9632 1.113 2.9728 1.669 6.1483 1.669 9.5264 0 3.2981-.533 6.3904-1.596 9.2736-1.063 2.8843-2.558 5.2555-4.487 7.1115h-4.204v-.415l.372-.3893c1.829-1.9701 3.249-4.2645 4.265-6.8843 1.083-2.7946 1.625-5.6938 1.625-8.6965 0-3.0816-.571-6.0747-1.714-8.9781-1.144-2.9035-2.807-5.392-4.995-7.4667v-.3851h4.205Zm-52.596 10.6966c1.233 0 2.31.2464 3.235.7402.821.4395 1.497.9792 2.029 1.6214l.192.2453v-2.3403h4.203v16.415h-4.203v-2.4l-.187.2517c-.516.6581-1.195 1.2107-2.034 1.6587-.945.5045-2.032.7562-3.266.7562-1.389 0-2.658-.3562-3.8-1.0666-1.142-.7115-2.048-1.7131-2.713-3.008-.666-1.2939-.998-2.7808-.998-4.4587 0-1.6597.332-3.1307.998-4.4149.665-1.2843 1.571-2.272 2.713-2.9632 1.142-.6912 2.42-1.0368 3.831-1.0368Zm-31.7424-4v8.5034h8.9134v-8.5034h4.1739v20.6816H91.128v-8.8h-8.9134v8.8h-4.174V22.0891h4.174Zm32.8164 7.6448c-.775 0-1.491.1866-2.147.5621-.656.3755-1.188.9237-1.596 1.6448-.407.7211-.61 1.5744-.61 2.5632 0 .9877.203 1.8517.61 2.592.408.7413.945 1.3088 1.611 1.7045.665.3947 1.377.592 2.132.592.774 0 1.501-.192 2.175-.5781.676-.3851 1.213-.9376 1.61-1.6587.397-.721.597-1.585.597-2.593 0-1.007-.2-1.872-.597-2.592-.397-.7211-.934-1.2747-1.61-1.6598-.674-.385-1.401-.577-2.175-.577Zm21.197 0c-.756 0-1.466.192-2.132.577-.665.3851-1.202.943-1.61 1.6747-.408.7307-.611 1.5893-.611 2.5771 0 .9888.203 1.8474.611 2.5781.408.7307.945 1.2885 1.61 1.6736.666.3861 1.376.5781 2.132.5781.775 0 1.495-.1973 2.161-.592.666-.3957 1.203-.9589 1.61-1.6896.408-.7306.611-1.6.611-2.6069 0-.9888-.203-1.8421-.611-2.5632-.407-.7211-.944-1.2693-1.61-1.6448-.666-.3755-1.386-.5621-2.161-.5621Zm20.213 0c-.755 0-1.466.192-2.132.577-.666.3851-1.201.943-1.609 1.6747-.407.7307-.612 1.5893-.612 2.5771 0 .9888.205 1.8474.612 2.5781.408.7307.943 1.2885 1.609 1.6736.666.3861 1.377.5781 2.132.5781.776 0 1.497-.1973 2.162-.592.666-.3957 1.203-.9589 1.61-1.6896.407-.7306.612-1.6.612-2.6069 0-.9888-.205-1.8421-.612-2.5632-.407-.7211-.944-1.2693-1.61-1.6448-.665-.3755-1.386-.5621-2.162-.5621Z" fill="#222"/><defs><linearGradient id="a" x1="-1.5645" y1="-2.4178" x2="63.904" y2="62.0564" gradientUnits="userSpaceOnUse"><stop stop-color="#D140F8"/><stop offset=".3651" stop-color="#788CE9"/><stop offset=".6837" stop-color="#37C2DE"/><stop offset="1" stop-color="#1ECCAE"/></linearGradient></defs></svg>