<svg width="120" height="38" fill="none" xmlns="http://www.w3.org/2000/svg"><path fill-rule="evenodd" clip-rule="evenodd" d="M62.4331 11.9607c1.486 0 2.8296.3673 4.0341 1.1018 1.2033.7345 2.1566 1.7796 2.8576 3.1331.7009 1.3534 1.0508 2.9222 1.0508 4.7075 0 1.783-.3499 3.3631-1.0508 4.7381-.701 1.3761-1.6543 2.4405-2.8576 3.1965-1.2045.755-2.5481 1.1336-4.0341 1.1336-1.2774 0-2.4023-.2619-3.3757-.7878-.8636-.4659-1.5847-1.0406-2.1612-1.723l-.2086-.2607V38h-4.3951V12.2441h4.3951v2.5187l.1963-.2607c.5451-.6835 1.2594-1.2628 2.1432-1.7389.9948-.535 2.1286-.8025 3.406-.8025Zm21.2851 0c1.486 0 2.8307.3673 4.034 1.1018 1.2034.7345 2.1556 1.7796 2.8565 3.1331.7009 1.3534 1.052 2.9222 1.052 4.7075 0 1.783-.3511 3.3631-1.052 4.7381-.7009 1.3761-1.6531 2.4405-2.8565 3.1965-1.2033.755-2.548 1.1336-4.034 1.1336-1.2763 0-2.4012-.2619-3.3746-.7878-.8658-.4659-1.5859-1.0406-2.1612-1.723l-.2097-.2607V38h-4.3941V12.2441h4.3941v2.5187l.1963-.2607c.545-.6835 1.2583-1.2628 2.142-1.7389.9948-.535 2.1309-.8025 3.4072-.8025Zm22.5638.2834 4.489 12.1854 4.551-12.1854H120l-10.768 25.6936h-4.677l3.767-8.6908-6.969-17.0028h4.929ZM32.7614.5938v.4092l-.425.4182c-2.0939 2.1186-3.7055 4.6237-4.8337 7.5164-1.2034 3.0855-1.8056 6.2661-1.8056 9.5409 0 3.1908.5708 6.2718 1.7125 9.2416 1.1395 2.9698 2.7668 5.5463 4.8808 7.7295v.4409h-4.4266l-.3544-.3548c-1.8594-1.9168-3.3174-4.3176-4.3705-7.2024-1.1193-3.0639-1.6789-6.35-1.6789-9.8548 0-3.5899.5854-6.9644 1.7574-10.1235 1.172-3.1592 2.8778-5.7459 5.1174-7.7613h4.4266Zm60.4425 0 .3891.3615c2.0479 1.9599 3.6247 4.4264 4.7283 7.3997 1.172 3.1591 1.7577 6.5336 1.7577 10.1235 0 3.5048-.5611 6.7909-1.6803 9.8548-1.1193 3.0651-2.6939 5.5849-4.7249 7.5572h-4.4266v-.4409l.3914-.4138c1.9256-2.0936 3.4217-4.5318 4.4916-7.3157 1.1395-2.9698 1.7103-6.0508 1.7103-9.2416 0-3.2748-.6011-6.4554-1.8045-9.5409-1.2045-3.0854-2.9563-5.73-5.2598-7.9346V.5938h4.4277ZM37.8205 11.9606c1.2976 0 2.4326.2619 3.4061.7867.8646.467 1.5768 1.0406 2.1364 1.7229l.2019.2607v-2.4869h4.4266v17.4438h-4.4266v-2.5505l-.1963.2676c-.5439.6993-1.2583 1.2865-2.142 1.7626-.9948.5362-2.1399.8037-3.4386.8037-1.4635 0-2.7993-.3786-4.0015-1.1336-1.2034-.756-2.1567-1.8204-2.8576-3.1965-.701-1.375-1.0509-2.9551-1.0509-4.7381 0-1.7638.3499-3.3269 1.0509-4.6917.7009-1.3647 1.6542-2.4144 2.8576-3.1489 1.2022-.7345 2.548-1.1018 4.034-1.1018ZM4.3952 7.71v9.0364h9.3859V7.71h4.3951v21.9779h-4.3951v-9.3516h-9.386v9.3516H0V7.71h4.3952Zm34.5558 8.124c-.8164 0-1.5701.1983-2.2609.5973-.6909.399-1.2505.9817-1.6801 1.7479-.4284.7663-.6426 1.6731-.6426 2.7239 0 1.0496.2142 1.9678.6426 2.7544.4296.7878.9948 1.3909 1.6958 1.8114.7009.4194 1.4501.6291 2.2452.6291.8154 0 1.5802-.204 2.2901-.6144.7122-.4092 1.2774-.9963 1.6958-1.7626.4183-.7662.628-1.6844.628-2.7556 0-1.07-.2097-1.9893-.628-2.7544-.4184-.7663-.9836-1.3546-1.6958-1.7638-.7099-.4092-1.4747-.6132-2.2901-.6132Zm22.3202 0c-.7951 0-1.5432.204-2.2441.6132-.7009.4092-1.2662 1.002-1.6957 1.7796-.4296.7765-.6438 1.689-.6438 2.7386 0 1.0508.2142 1.9633.6438 2.7397.4295.7765.9948 1.3693 1.6957 1.7785.7009.4104 1.449.6144 2.2441.6144.8165 0 1.5746-.2097 2.2756-.6291.702-.4205 1.2673-1.019 1.6957-1.7955.4295-.7765.6437-1.7003.6437-2.7703 0-1.0508-.2142-1.9576-.6437-2.7239-.4284-.7662-.9937-1.3489-1.6957-1.7479-.701-.399-1.4591-.5973-2.2756-.5973Zm21.2851 0c-.7952 0-1.5443.204-2.2453.6132-.7009.4092-1.265 1.002-1.6946 1.7796-.4284.7765-.6437 1.689-.6437 2.7386 0 1.0508.2153 1.9633.6437 2.7397.4296.7765.9937 1.3693 1.6946 1.7785.701.4104 1.4501.6144 2.2453.6144.8164 0 1.5757-.2097 2.2766-.6291.701-.4205 1.2662-1.019 1.6946-1.7955.4296-.7765.6449-1.7003.6449-2.7703 0-1.0508-.2153-1.9576-.6449-2.7239-.4284-.7662-.9936-1.3489-1.6946-1.7479-.7009-.399-1.4602-.5973-2.2766-.5973Z" fill="#222"/></svg>