<svg width="120" height="40" fill="none" xmlns="http://www.w3.org/2000/svg"><path fill-rule="evenodd" clip-rule="evenodd" d="M11.3494 0H28.59c3.9466 0 5.3778.4113 6.8203 1.184 1.4425.7733 2.5754 1.9073 3.3469 3.352.7715 1.4447 1.1822 2.878 1.1822 6.8307v17.2666c0 3.9527-.4107 5.3854-1.1822 6.8307-.7715 1.4447-1.9044 2.5787-3.3469 3.352C33.9678 39.5887 32.5366 40 28.59 40H11.3494c-3.9466 0-5.3778-.4113-6.8203-1.184-1.4424-.7733-2.5747-1.9073-3.3462-3.352C.4107 34.0187 0 32.586 0 28.6333V11.3667C0 7.414.4107 5.9807 1.1829 4.536c.7715-1.4447 1.9038-2.5787 3.3462-3.352C5.9716.4113 7.4028 0 11.3494 0Z" fill="url(#a)"/><path opacity=".9" fill-rule="evenodd" clip-rule="evenodd" d="M15.2225 10.6667v.2166l-.2217.2214c-1.0943 1.12-1.9357 2.4446-2.5248 3.9746-.6284 1.632-.9426 3.314-.9426 5.046 0 1.6874.2976 3.316.8933 4.8874.5958 1.5706 1.4459 2.9333 2.5502 4.0873v.2333h-2.3125l-.1957-.1993c-.9666-1.0113-1.7241-2.278-2.2719-3.7967-.5851-1.6213-.8773-3.3586-.8773-5.212 0-1.8986.3062-3.6833.9179-5.354.6124-1.6706 1.5037-3.0386 2.6733-4.1046h2.3118Zm11.8068 0 .2163.2033c1.0637 1.0347 1.8825 2.3353 2.4563 3.9013.6124 1.6707.9186 3.4554.9186 5.354 0 1.8534-.2929 3.5907-.8774 5.212-.5851 1.6207-1.4078 2.9527-2.4682 3.996h-2.3118V29.1l.217-.2333c.9991-1.1034 1.7766-2.388 2.3324-3.854.5964-1.5714.894-3.2.894-4.8874 0-1.732-.3142-3.414-.9426-5.046-.629-1.632-1.5443-3.0306-2.7465-4.196v-.2166h2.3119ZM17.5184 14.43v4.7787h4.9025V14.43h2.2965v11.6227h-2.2965v-4.9454h-4.9025v4.9454h-2.2959V14.43h2.2959Z" fill="#fff"/><path fill-rule="evenodd" clip-rule="evenodd" d="M85.8318 16.3057c.882 0 1.6795.216 2.3944.648.7143.432 1.2801 1.0466 1.6961 1.8426.416.796.6237 1.7187.6237 2.7687 0 1.0487-.2077 1.978-.6237 2.7867-.416.8093-.9818 1.4353-1.6961 1.88-.7149.444-1.5124.6666-2.3944.6666-.7581 0-1.4258-.154-2.0036-.4633-.5125-.274-.9406-.612-1.2827-1.0133l-.1238-.1534v6.352H79.813v-15.148h2.6087v1.4814l.1165-.1534c.3235-.402.7475-.7426 1.272-1.0226.5905-.3147 1.2635-.472 2.0216-.472Zm12.6335 0c.882 0 1.6797.216 2.3947.648.714.432 1.279 1.0466 1.695 1.8426.416.796.625 1.7187.625 2.7687 0 1.0487-.209 1.978-.625 2.7867-.416.8093-.981 1.4353-1.695 1.88-.715.444-1.5127.6666-2.3947.6666-.7575 0-1.4251-.154-2.0029-.4633-.5139-.274-.9413-.612-1.2827-1.0133l-.1245-.1534v6.352h-2.6081v-15.148h2.6081v1.4814l.1165-.1534c.3235-.402.7468-.7426 1.2714-1.0226.5904-.3147 1.2647-.472 2.0222-.472Zm13.3927.1666 2.664 7.1667 2.702-7.1667H120l-6.391 15.1114h-2.776l2.236-5.1114-4.137-10h2.926Zm-43.6374-6.852v.2407l-.2523.246c-1.2428 1.246-2.1994 2.7193-2.869 4.4207-.7143 1.8146-1.0717 3.6853-1.0717 5.6113 0 1.8767.3388 3.6887 1.0164 5.4353.6763 1.7467 1.6422 3.262 2.897 4.546v.2594h-2.6274l-.2103-.2087c-1.1037-1.1273-1.969-2.5393-2.5941-4.236-.6643-1.802-.9965-3.7347-.9965-5.796 0-2.1113.3475-4.096 1.0431-5.954.6956-1.858 1.7081-3.3793 3.0374-4.5647h2.6274Zm35.8744 0 .231.2127c1.216 1.1527 2.152 2.6033 2.807 4.352.695 1.858 1.043 3.8427 1.043 5.954 0 2.0613-.333 3.994-.997 5.796-.665 1.8027-1.599 3.2847-2.805 4.4447h-2.627v-.2594l.232-.2433c1.143-1.2313 2.031-2.6653 2.666-4.3027.677-1.7466 1.015-3.5586 1.015-5.4353 0-1.926-.356-3.7967-1.071-5.6113-.715-1.8147-1.754-3.37-3.122-4.6667v-.2407h2.628Zm-32.8717 6.6854c.7702 0 1.4438.154 2.0216.4626.5133.2747.9359.612 1.2681 1.0134l.1198.1533v-1.4627h2.6274v10.2594h-2.6274v-1.5l-.1165.1573c-.3228.4113-.7468.7567-1.2714 1.0367-.5904.3153-1.27.4726-2.0409.4726-.8687 0-1.6615-.2226-2.375-.6666-.7143-.4447-1.2801-1.0707-1.6961-1.88-.4161-.8087-.6237-1.738-.6237-2.7867 0-1.0373.2076-1.9567.6237-2.7593.416-.8027.9818-1.42 1.6961-1.852.7135-.432 1.5123-.648 2.3943-.648Zm-19.8392-2.5v5.3146h5.5709v-5.3146h2.6087v12.926H56.955v-5.5h-5.5709v5.5h-2.6087v-12.926h2.6087Zm20.5102 4.778c-.4846 0-.9319.1166-1.3419.3513-.4101.2347-.7423.5773-.9972 1.028-.2543.4507-.3814.984-.3814 1.602 0 .6173.1271 1.1573.3814 1.62.2549.4633.5904.818 1.0065 1.0653.416.2467.8607.37 1.3326.37.484 0 .9379-.12 1.3593-.3613.4227-.2407.7582-.586 1.0065-1.0367.2483-.4506.3727-.9906.3727-1.6206 0-.6294-.1244-1.17-.3727-1.62-.2483-.4507-.5838-.7967-1.0065-1.0374-.4214-.2406-.8753-.3606-1.3593-.3606Zm13.2479 0c-.4719 0-.9159.12-1.332.3606-.416.2407-.7515.5894-1.0064 1.0467-.255.4567-.3821.9933-.3821 1.6107 0 .618.1271 1.1546.3821 1.6113.2549.4567.5904.8053 1.0064 1.046.4161.2413.8601.3613 1.332.3613.4846 0 .9346-.1233 1.3506-.37.4167-.2473.7522-.5993 1.0065-1.056.255-.4566.3821-1 .3821-1.6293 0-.618-.1271-1.1513-.3821-1.602-.2543-.4507-.5898-.7933-1.0065-1.028-.416-.2347-.866-.3513-1.3506-.3513Zm12.6335 0c-.4719 0-.9166.12-1.3326.3606-.4161.2407-.7509.5894-1.0058 1.0467-.2543.4567-.3821.9933-.3821 1.6107 0 .618.1278 1.1546.3821 1.6113.2549.4567.5897.8053 1.0058 1.046.416.2413.8607.3613 1.3326.3613.4846 0 .9353-.1233 1.3513-.37.416-.2473.7515-.5993 1.006-1.056.255-.4566.383-1 .383-1.6293 0-.618-.128-1.1513-.383-1.602-.2545-.4507-.59-.7933-1.006-1.028-.416-.2347-.8667-.3513-1.3513-.3513Z" fill="#222"/><defs><linearGradient id="a" x1="-.9778" y1="-1.5111" x2="39.94" y2="38.7852" gradientUnits="userSpaceOnUse"><stop stop-color="#D140F8"/><stop offset=".3651" stop-color="#788CE9"/><stop offset=".6837" stop-color="#37C2DE"/><stop offset="1" stop-color="#1ECCAE"/></linearGradient></defs></svg>