<svg width="24" height="25" fill="none" xmlns="http://www.w3.org/2000/svg"><path d="M24 5.5565c-.8831.3922-1.832.6555-2.8276.7762 1.0175-.6089 1.7964-1.5743 2.1639-2.7234a9.9002 9.9002 0 0 1-3.1265 1.1958A4.9133 4.9133 0 0 0 16.6171 3.25c-2.7206 0-4.9256 2.2023-4.9256 4.923 0 .3867.0438.7624.1261 1.1217C7.7257 9.089 4.0974 7.1308 1.6702 4.1496a4.9188 4.9188 0 0 0-.6664 2.4766c0 1.7086.8694 3.2143 2.1885 4.0974a4.876 4.876 0 0 1-2.2297-.6171v.0631c0 2.3861 1.6977 4.3745 3.9493 4.827a4.9178 4.9178 0 0 1-1.2972.1728 4.867 4.867 0 0 1-.9243-.0878c.6253 1.9555 2.4436 3.3789 4.5965 3.4201C5.603 19.8209 3.483 20.608 1.174 20.608A9.7804 9.7804 0 0 1 0 20.5395C2.1803 21.9354 4.7665 22.75 7.5475 22.75c9.0559 0 14.0089-7.5011 14.0089-14.0065 0-.214-.0055-.4251-.0137-.6363.9626-.6967 1.7991-1.5633 2.4573-2.5507Z" fill="#1B1A1A"/></svg>